<svg height="511pt" viewBox="-28 0 511 511.99992" width="511pt" xmlns="http://www.w3.org/2000/svg"><path d="m77.261719 512h213.226562c4.183594 0 7.746094-3.03125 8.417969-7.15625l41.488281-254.824219c1.269531.042969 2.558594.1875 3.792969.1875 61.238281 0 110.882812-49.640625 110.882812-110.878906 0-61.234375-49.640624-110.878906-110.878906-110.878906-56.921875 0-104.601562 43.101562-110.316406 99.738281h-71.324219v-51.171875c0-9.363281-5.117187-17.976563-13.335937-22.457031l-93.824219-51.175782c-12.265625-7.019531-27.898437-2.761718-34.914063 9.503907-7.015624 12.265625-2.761718 27.898437 9.503907 34.914062.292969.167969.589843.332031.890625.488281l80.507812 43.925782v35.972656h-102.351562c-4.710938.003906-8.527344 3.820312-8.527344 8.53125 0 .523438.046875 1.046875.144531 1.558594l68.234375 366.753906c.75 4.039062 4.273438 6.96875 8.382813 6.96875zm254.363281-314.324219c-25.320312-5.488281-44.226562-26.652343-46.839844-52.429687h55.378906zm-46.054688-69.488281c3.398438-17.765625 14.652344-33.039062 30.609376-41.554688l16.90625 41.554688zm46.710938-47.359375c18.847656-3.851563 38.386719 1.652344 52.457031 14.769531l-34.621093 29.179688zm28.863281 56.972656 34.332031-28.9375c9.597657 15.976563 11.109376 35.546875 4.074219 52.8125zm29.792969 38.601563c-10.320312 13.019531-25.609375 21.140625-42.175781 22.398437l7.1875-44.136719zm-46.714844-130.894532c51.816406.011719 93.8125 42.023438 93.800782 93.839844-.011719 51.800782-42 93.789063-93.800782 93.800782-.347656 0-.691406-.050782-1.039062-.050782l2.78125-17.058594c42.382812-.9375 75.984375-36.054687 75.046875-78.4375-.9375-42.386718-36.054688-75.984374-78.4375-75.050781-37.453125.828125-68.839844 28.570313-74.261719 65.636719h-17.21875c5.679688-47.136719 45.648438-82.625 93.128906-82.679688zm-76.496094 99.738282c2.671876 34.144531 27.605469 62.40625 61.152344 69.308594l-1.210937 7.453124h-27.746094c-28.578125-15.355468-47.203125-44.378906-49.253906-76.761718zm-105.175781 0h71.050781c1.5625 29.5 14.871094 57.144531 36.957032 76.761718h-108.007813zm-123.484375-111.917969c-4.136718-2.253906-5.664062-7.429687-3.414062-11.570313 0 0 .003906-.003906.003906-.003906 2.324219-4.042968 7.417969-5.546875 11.566406-3.410156l93.820313 51.171875c2.746093 1.496094 4.453125 4.371094 4.453125 7.5v51.171875h-17.058594v-46.105469zm89.371094 188.679687v-76.761718h17.054688v76.761718zm17.058594 17.058594v35.175782l-17.058594 4.484374v-39.660156zm-8.34375 55.003906 8.34375 31.679688v19.078125l-44.796875 11.789063-13.023438-49.46875zm8.34375 68.363282v81.332031h-17.058594v-76.847656zm-126.234375-217.1875h92.117187v76.761718h-77.804687zm92.117187 93.820312v44.148438l-44.546875 11.726562 21.703125 82.484375 22.84375-5.96875v89.367188h51.171875v-33.5l56.773438 56.769531 60.308593-60.3125-60.308593-60.308594-56.773438 56.769532v-62.261719l8.472657-2.234375-8.472657-32.242188v-84.4375h133.515625c8.660156 4.226563 17.835938 7.289063 27.292969 9.117188l-40.128906 246.757812h-198.882813l-47.601562-255.875zm71.753906 184.714844 36.191407-36.1875 36.195312 36.1875-36.1875 36.191406zm0 0"/><path d="m204.34375 251.433594-29.421875 80.0625 80.0625 29.394531 29.390625-80.03125zm40.539062 87.570312-48.035156-17.640625 17.628906-48.035156 48.046876 17.628906zm0 0"/></svg>