<svg id="Capa_1" enable-background="new 0 0 511.999 511.999" height="512" viewBox="0 0 511.999 511.999" width="512" xmlns="http://www.w3.org/2000/svg"><g><path d="m402.496 289.563c-2.735-7.962-4.05-11.918-4.05-14.817 0-2.898 1.314-6.854 4.053-14.826 2.036-5.947 5.114-14.936-1.465-23.668-2.227-2.966-4.085-5.39-5.646-7.427-6.792-8.86-6.792-8.86-8.951-18.953-.041-.19-.086-.401-.128-.597 1.842-.534 3.711-1.16 5.562-1.934 3.665-1.555 7.081-3.612 10.372-5.838 1.719-1.163 3.423-2.351 5.111-3.558 1.423-1.018 2.8-2.188 4.423-2.884 2.713-1.164 6.685-1.038 9.268.426 3.237 1.834 6.169 4.326 9.267 6.388 3.126 2.081 6.372 4.006 9.835 5.475 5.302 2.236 10.561 3.239 15.646 4.21 2.289.438 4.451.85 6.479 1.35 1.95.487 2.425 1.147 2.788 2.777.737 3.284 1.314 5.993 1.801 8.274 2.958 13.89 3.549 15.152 12.654 27.029 1.527 1.991 3.343 4.359 5.519 7.257-.022.995-.876 3.489-1.447 5.16-6.848 19.933-6.848 22.724-.004 42.646.575 1.682 1.429 4.177 1.451 5.171-2.152 2.862-3.952 5.209-5.469 7.186-7.931 10.34-9.422 12.656-11.611 22.126h-81.714c.065-.305.134-.624.196-.915 2.159-10.093 2.159-10.093 8.952-18.955 1.563-2.037 3.419-4.46 5.637-7.413 6.588-8.746 3.51-17.734 1.471-23.69zm107.712 55.26c-1.87-2.687-4.936-4.288-8.208-4.288h-13.211c1.12-2.75 2.802-4.943 6.645-9.953 1.554-2.025 3.396-4.429 5.597-7.355 6.579-8.733 3.507-17.71 1.471-23.661-2.735-7.962-4.051-11.918-4.051-14.83s1.315-6.868 4.055-14.842c2.032-5.94 5.104-14.918-1.465-23.638-2.229-2.969-4.09-5.395-5.653-7.435-6.803-8.874-6.803-8.874-8.966-19.026-.498-2.342-1.091-5.121-1.844-8.475-2.047-9.186-8.246-15.513-17.484-17.821-2.574-.635-5.104-1.118-7.55-1.585-2.959-.565-5.937-1.11-8.822-1.989-2.745-.837-5.265-2.108-7.69-3.633-4.79-3.012-9.175-7.012-14.363-9.342-8.304-3.729-19.546-3.582-27.467 1.095-5.795 3.421-10.855 8.218-17.094 10.865-1.549.647-3.226 1.156-4.959 1.594-3.039-3.381-7.113-5.775-12.06-6.979-2.547-.628-5.052-1.111-7.475-1.578-4.278-.824-8.32-1.603-11.681-3.02-3.364-1.427-6.712-3.777-10.256-6.267-2.051-1.44-4.173-2.931-6.422-4.335-8.271-5.187-22.25-5.186-30.506-.011-2.267 1.415-4.389 2.905-6.439 4.346-3.544 2.489-6.892 4.84-10.234 6.258-3.382 1.426-7.424 2.204-11.702 3.028-2.423.467-4.928.95-7.443 1.571-9.214 2.243-15.422 8.544-17.479 17.683-6.066-1.491-12.361-.452-18.012 3.132-2.931 1.853-5.322 3.402-7.336 4.707-8.687 5.628-8.687 5.628-19.765 7.094-2.474.327-5.413.718-8.908 1.214-.4-2.294-.818-4.652-1.371-7.062-2.191-9.509-12.077-19.394-21.597-21.586-2.566-.589-5.089-1.028-7.528-1.454-4.287-.747-8.337-1.453-11.731-2.828-3.427-1.388-6.851-3.712-10.476-6.174-2.016-1.368-4.1-2.783-6.361-4.157-8.1-4.856-16.938-4.775-24.918.238-2.955 1.87-5.363 3.432-7.388 4.745-8.66 5.618-8.66 5.618-19.754 7.085-2.542.337-5.564.736-9.185 1.252-10.846 1.494-15.039 10.023-17.831 15.703-3.678 7.556-5.536 11.278-7.596 13.337-2.047 2.046-5.776 3.916-13.342 7.615-5.64 2.755-14.163 6.919-15.715 17.775-.524 3.672-.925 6.698-1.262 9.244-1.466 11.072-1.466 11.072-7.095 19.756-1.306 2.013-2.855 4.403-4.713 7.341-5.042 7.988-5.13 16.843-.242 24.937 1.368 2.263 2.808 4.382 4.2 6.433 2.438 3.588 4.74 6.978 6.109 10.354 1.37 3.396 2.079 7.42 2.829 11.679.436 2.475.887 5.033 1.482 7.594.107.471.231.92.364 1.36h-10.31c-3.272 0-6.338 1.602-8.208 4.288-1.869 2.686-2.306 6.117-1.169 9.186l39.996 107.966c1.453 3.923 5.194 6.526 9.377 6.526h412.008c4.183 0 7.924-2.604 9.377-6.526l39.996-107.966c1.136-3.068.7-6.5-1.169-9.185zm-243.269-139.14c.391-1.76.925-2.297 2.753-2.741 2.045-.505 4.192-.919 6.466-1.357 5.101-.982 10.375-1.999 15.707-4.246 5.313-2.254 9.699-5.334 13.939-8.312 1.917-1.347 3.729-2.619 5.553-3.757 1.776-1.113 7.497-1.114 9.291.011 1.807 1.127 3.618 2.399 5.535 3.746 4.24 2.978 8.626 6.058 13.961 8.32 5.311 2.238 10.585 3.255 15.686 4.237 2.273.438 4.421.853 6.496 1.364 1.798.438 2.332.975 2.73 2.772.748 3.313 1.332 6.04 1.822 8.334 2.957 13.823 3.548 15.082 12.637 26.938 1.525 1.99 3.339 4.356 5.513 7.251-.017 1.007-.907 3.609-1.448 5.188-6.841 19.92-6.841 22.708-.003 42.618.544 1.588 1.435 4.19 1.451 5.197-2.173 2.895-3.986 5.26-5.512 7.249-9.09 11.857-9.681 13.116-12.638 26.939-.32 1.497-.686 3.2-1.103 5.099h-53.052c.266-.918.494-1.874.642-2.909.521-3.675.918-6.703 1.252-9.25 1.453-11.064 1.453-11.064 7.098-19.764 1.307-2.014 2.857-4.405 4.705-7.323 5.075-7.994 5.149-16.858.245-24.901-1.392-2.319-2.864-4.486-4.288-6.583-2.411-3.549-4.688-6.901-6.039-10.234-1.382-3.424-2.089-7.48-2.838-11.773-.425-2.433-.863-4.948-1.453-7.529-2.199-9.542-12.105-19.418-21.559-21.549-2.614-.61-5.178-1.063-7.657-1.5-4.249-.749-8.263-1.457-11.64-2.819-1.836-.744-3.673-1.761-5.539-2.92.369-1.706.79-3.62 1.287-5.796zm-73.591 101.97c.522-3.672.924-6.699 1.261-9.245 1.466-11.08 1.466-11.08 7.079-19.748 1.31-2.021 2.865-4.424 4.716-7.353 5.051-7.955 5.148-16.81.245-24.977-1.346-2.215-2.763-4.301-4.133-6.317-.787-1.159-1.555-2.295-2.288-3.419 1.747-.238 3.32-.446 4.735-.633 14.819-1.961 16.129-2.435 28.016-10.136 1.962-1.271 4.292-2.781 7.163-4.596 1.508-.958 2.345-.962 3.879-.037 1.782 1.082 3.571 2.297 5.466 3.583 4.328 2.938 8.804 5.977 14.21 8.167 5.336 2.151 10.585 3.077 15.662 3.973 2.315.408 4.503.794 6.657 1.297 2.035.459 6.07 4.496 6.539 6.53.471 2.058.846 4.211 1.244 6.491.895 5.131 1.819 10.436 3.999 15.835 2.154 5.316 5.145 9.719 8.037 13.976 1.327 1.953 2.58 3.798 3.719 5.695.939 1.541.936 2.328-.024 3.841-1.807 2.854-3.318 5.185-4.592 7.146-7.729 11.912-8.202 13.223-10.148 28.046-.327 2.488-.716 5.446-1.222 9.022-.714.7-3.188 1.909-4.686 2.641-2.446 1.191-4.477 2.185-6.278 3.1h-123.028c1.946-3.822 3.294-6.085 4.729-7.521 2.049-2.05 5.772-3.917 13.288-7.592 5.307-2.564 14.189-6.855 15.755-17.769zm-170.872-18.791c1.806-2.854 3.316-5.185 4.587-7.146 7.705-11.884 8.179-13.193 10.141-28.01.329-2.487.721-5.444 1.231-9.027.714-.701 3.188-1.91 4.7-2.648 18.954-9.268 20.926-11.241 30.12-30.132.785-1.597 1.95-3.966 2.643-4.686 3.585-.511 6.543-.901 9.03-1.23 14.841-1.963 16.15-2.437 28.017-10.134 1.972-1.279 4.317-2.801 7.171-4.606 1.539-.968 2.354-.97 3.915-.033 1.781 1.082 3.569 2.296 5.462 3.581 4.33 2.939 8.807 5.979 14.201 8.164 5.368 2.175 10.674 3.1 15.805 3.994 2.283.398 4.44.774 6.483 1.243 2.052.473 6.115 4.534 6.586 6.577.471 2.051.847 4.207 1.245 6.49.896 5.129 1.82 10.433 3.996 15.799 2.185 5.393 5.225 9.867 8.164 14.193 1.286 1.894 2.501 3.683 3.556 5.418.957 1.594.955 2.398-.021 3.937-1.814 2.872-3.331 5.213-4.606 7.183-7.686 11.867-8.158 13.176-10.119 27.996-.327 2.465-.714 5.392-1.233 9.018-.732.716-3.266 1.938-4.697 2.631-18.913 9.247-20.884 11.22-30.126 30.141-.437.889-.991 2.011-1.514 2.961h-92.711c-2.35-1.491-4.736-4.422-5.062-5.84-.485-2.085-.87-4.271-1.278-6.584-.896-5.088-1.823-10.349-3.984-15.707-2.173-5.36-5.189-9.801-8.106-14.095-1.304-1.92-2.535-3.733-3.627-5.538-.946-1.568-.939-2.373.031-3.91zm448.86 115.659h-260.477c-5.522 0-10 4.478-10 10s4.478 10 10 10h253.068l-8.883 23.979h-398.088l-8.883-23.979h72.958c5.522 0 10-4.478 10-10s-4.478-10-10-10h-80.367l-16.295-43.986h463.262z"/><path d="m116.977 246.278h.057c5.522 0 9.972-4.478 9.972-10s-4.506-10-10.028-10-10 4.478-10 10 4.477 10 9.999 10z"/><path d="m117.034 271.278c-5.522 0-10 4.478-10 10s4.478 10 10 10h.057c5.522 0 9.972-4.478 9.972-10s-4.507-10-10.029-10z"/><path d="m249.863 274.586h.057c5.522 0 9.972-4.478 9.972-10s-4.506-10-10.028-10-10 4.478-10 10 4.477 10 9.999 10z"/><path d="m234.698 317.235h.028c5.522 0 9.985-4.478 9.985-10s-4.491-10-10.014-10-10 4.478-10 10 4.479 10 10.001 10z"/><path d="m349.385 262.572h.057c5.522 0 9.972-4.478 9.972-10s-4.506-10-10.028-10-10 4.478-10 10c-.001 5.522 4.477 10 9.999 10z"/><path d="m74.94 317.518h.057c5.522 0 9.972-4.478 9.972-10s-4.506-10-10.028-10-10 4.478-10 10 4.477 10 9.999 10z"/><path d="m437.173 256.762h.057c5.522 0 9.972-4.478 9.972-10s-4.506-10-10.028-10-10 4.478-10 10 4.476 10 9.999 10z"/><path d="m430.234 310.493c0 5.522 4.478 10 10 10h.028c5.522 0 9.986-4.478 9.986-10s-4.492-10-10.015-10-9.999 4.478-9.999 10z"/><path d="m165.959 424.521h.028c5.522 0 9.986-4.478 9.986-10s-4.492-10-10.015-10-10 4.478-10 10 4.478 10 10.001 10z"/><path d="m316.023 84.358-.072.086c-7.146 8.562-8.525 18.133-8.4 24.74-.177 9.36 2.833 18.176 8.487 24.847l.04.046c1.977 2.417 4.849 3.668 7.745 3.668 2.227 0 4.469-.74 6.326-2.261 4.274-3.497 4.905-9.797 1.407-14.071l-.262-.313c-3.24-3.823-3.825-8.455-3.745-11.668.004-.165.004-.331 0-.496-.115-4.625 1.148-8.553 3.755-11.676.146-.175.263-.316.31-.376l.077-.094c7.116-8.56 8.489-18.125 8.364-24.729.125-6.602-1.248-16.165-8.361-24.727l-.068-.082c-3.428-4.286-9.68-5.01-13.998-1.607-4.338 3.419-5.083 9.707-1.665 14.044.084.106.201.25.349.428 3.238 3.897 3.824 8.512 3.745 11.696-.004.165-.004.331 0 .496.079 3.186-.507 7.8-3.744 11.695-.117.14-.214.258-.29.354z"/><path d="m250.07 72.285c.103 4.632-1.196 8.68-3.757 11.705l-.379.456c-7.122 8.552-8.495 18.126-8.369 24.737-.178 9.367 2.821 18.182 8.457 24.846l.041.047c1.977 2.417 4.849 3.668 7.745 3.668 2.227 0 4.469-.74 6.326-2.261 4.274-3.497 4.905-9.797 1.407-14.071l-.249-.299c-3.228-3.815-3.809-8.458-3.729-11.681.004-.166.004-.332 0-.498-.115-4.639 1.143-8.572 3.739-11.689.087-.104.162-.197.228-.276l.049-.058c5.638-6.662 8.648-15.479 8.489-24.85.159-9.368-2.851-18.184-8.486-24.847l-.061-.071c-3.502-4.254-9.789-4.875-14.053-1.383-4.274 3.498-4.903 9.799-1.406 14.072l.25.299c3.235 3.824 3.828 8.478 3.757 11.707-.003.15-.003.298.001.447z"/><path d="m176.025 84.355-.071.085c-7.148 8.56-8.528 18.134-8.403 24.744-.177 9.365 2.834 18.182 8.491 24.852l.04.046c1.977 2.414 4.848 3.663 7.741 3.663 2.229 0 4.473-.741 6.331-2.265 4.272-3.5 4.898-9.801 1.398-14.072l-.258-.309c-3.24-3.82-3.825-8.453-3.745-11.667.004-.165.004-.331 0-.496-.115-4.627 1.148-8.555 3.755-11.675.145-.174.26-.313.313-.381l.077-.094c7.114-8.562 8.486-18.124 8.361-24.725.125-6.599-1.247-16.159-8.358-24.723l-.068-.082c-3.427-4.288-9.676-5.017-13.996-1.615-4.34 3.416-5.089 9.703-1.674 14.043.085.107.203.252.353.433 2.6 3.131 3.86 7.066 3.745 11.696-.004.165-.004.331 0 .496.079 3.184-.507 7.798-3.745 11.695-.115.139-.211.256-.287.351z"/></g></svg>